<svg width="25" height="24" viewBox="0 0 25 24" fill="none" xmlns="http://www.w3.org/2000/svg">
<path fill-rule="evenodd" clip-rule="evenodd" d="M18.8018 4.01145L16.5246 16.5647L4.16434 15.7671L1.67095 3.86629H10.257L18.8018 4.01145ZM16.8857 17.5623C17.0952 17.5623 17.279 17.3994 17.3202 17.1703L19.7511 3.7671L21.6401 1.58645H24.5562C24.8011 1.58645 25.0004 1.36871 25.0004 1.10016C25.0004 0.830806 24.8011 0.613064 24.5562 0.613064H21.4496C21.3276 0.613064 21.2114 0.667903 21.1276 0.764677L19.1533 3.04371L10.2636 2.8929H1.1136C0.978308 2.8929 0.850367 2.96064 0.766543 3.07677C0.681984 3.1929 0.650366 3.34452 0.681248 3.48887L3.3739 16.3405C3.41801 16.551 3.58345 16.705 3.77978 16.7171L16.8585 17.5615C16.8673 17.5623 16.8761 17.5623 16.8857 17.5623Z" fill="#231F20"/>
<path fill-rule="evenodd" clip-rule="evenodd" d="M3.36205 19.5418H16.826C17.0709 19.5418 17.2701 19.3232 17.2701 19.0547V17.0748C17.2701 16.8063 17.0709 16.5885 16.826 16.5885C16.5812 16.5885 16.3819 16.8063 16.3819 17.0748V18.5676H3.36205C3.1172 18.5676 2.91794 18.7861 2.91794 19.0547C2.91794 19.3232 3.1172 19.5418 3.36205 19.5418Z" fill="#231F20"/>
<path fill-rule="evenodd" clip-rule="evenodd" d="M14.3993 21.8052C14.3993 22.8536 15.1743 23.7036 16.1302 23.7036C17.0861 23.7036 17.8611 22.8536 17.8611 21.8052C17.8611 20.7569 17.0861 19.9069 16.1302 19.9069C15.1743 19.9069 14.3993 20.7569 14.3993 21.8052Z" fill="#231F20"/>
<path fill-rule="evenodd" clip-rule="evenodd" d="M2.74087 21.8052C2.74087 22.8536 3.51587 23.7036 4.47175 23.7036C5.42764 23.7036 6.20264 22.8536 6.20264 21.8052C6.20264 20.7569 5.42764 19.9069 4.47175 19.9069C3.51587 19.9069 2.74087 20.7569 2.74087 21.8052Z" fill="#231F20"/>
</svg>
